Coordinates
version=1
nRows=21
nColumns=22
inDegrees=yes

Units are S.I. units (second, meters, Newtons, ...)
If the header above contains a line with 'inDegrees', this indicates whether rotational values are in degrees (yes) or radians (no).

endheader
time	pelvis_tilt	pelvis_list	pelvis_rotation	pelvis_tx	pelvis_ty	pelvis_tz	hip_flexion_r	hip_adduction_r	hip_rotation_r	knee_angle_r	ankle_angle_r	subtalar_angle_r	hip_flexion_l	hip_adduction_l	hip_rotation_l	knee_angle_l	ankle_angle_l	subtalar_angle_l	lumbar_extension	lumbar_bending	lumbar_rotation
      3.71000000	     -3.35917086	     -1.21370322	    -85.39122048	      0.37369401	      0.90078136	      0.76258950	     -8.54291650	      5.70812680	      9.39499293	    -28.30497125	     16.70049024	     -3.86949633	     30.15558665	     -5.33972610	      4.09603911	    -25.90103103	     -2.14707398	      3.37869323	     -4.64070001	     -0.34970765	      1.22878544
      3.72000000	     -2.78263338	     -1.26244300	    -85.41845540	      0.37751041	      0.90220761	      0.77190975	     -8.70018198	      4.92587700	      9.02854525	    -29.19757553	     15.29469264	     -3.82981962	     29.73944013	     -4.58307300	      3.95461599	    -26.56251535	     -2.18192961	      3.50626198	     -4.45439872	     -1.07301443	      0.95675024
      3.73000000	     -2.19635788	     -1.41798644	    -85.42251422	      0.38138946	      0.90395567	      0.78127356	     -8.99649466	      4.10076443	      8.44734543	    -29.99646566	     13.76478229	     -3.78804181	     29.12346445	     -3.83608627	      3.72560550	    -27.08813804	     -2.03668216	      3.64596628	     -4.39532804	     -1.78187056	      0.68345920
      3.74000000	     -1.64864900	     -1.57433756	    -85.44832960	      0.38519556	      0.90584289	      0.79054937	     -9.26306111	      3.28717845	      7.73872745	    -30.78022921	     12.06834915	     -3.84654935	     28.40543558	     -3.14540369	      3.48213791	    -27.42783155	     -1.76097587	      3.72801892	     -4.34678993	     -2.43427503	      0.43825480
      3.75000000	     -1.14201150	     -1.72699810	    -85.49383090	      0.38894899	      0.90780817	      0.79966748	     -9.46988935	      2.47188303	      6.84192573	    -31.58499480	     10.27885193	     -3.97384137	     27.62031481	     -2.51114435	      3.19937227	    -27.62015937	     -1.44568907	      3.76219337	     -4.31397808	     -3.02346791	      0.23167840
      3.76000000	     -0.67846415	     -1.87675907	    -85.59844193	      0.39254898	      0.90983066	      0.80860601	     -9.60312229	      1.66089992	      5.84444017	    -32.43497839	      8.42222367	     -4.14028472	     26.76112433	     -1.95204797	      2.85209930	    -27.65887932	     -1.05749099	      3.75990987	     -4.29669262	     -3.55324132	      0.07898073
      3.77000000	     -0.26611974	     -2.00277405	    -85.77541600	      0.39597260	      0.91183947	      0.81731266	     -9.60365047	      0.85150124	      4.74573967	    -33.38779753	      6.54893569	     -4.32433843	     25.86572410	     -1.47402212	      2.43702651	    -27.55925619	     -0.64948699	      3.71481820	     -4.27476811	     -4.01572859	     -0.00568838
      3.78000000	      0.10487094	     -2.09325858	    -86.03683976	      0.39920055	      0.91377521	      0.82573248	     -9.43359957	      0.03199224	      3.60112494	    -34.48865469	      4.68355847	     -4.49952524	     24.97290455	     -1.06104986	      1.95731177	    -27.36330912	     -0.23834785	      3.62248966	     -4.24050498	     -4.42340915	     -0.01488822
      3.79000000	      0.44751181	     -2.17107531	    -86.38808134	      0.40220366	      0.91564009	      0.83385809	     -9.10753543	     -0.80875237	      2.45119626	    -35.75725025	      2.87227483	     -4.65985375	     24.07211892	     -0.70164680	      1.39177872	    -27.09772335	      0.19914574	      3.44197903	     -4.22158901	     -4.79349629	      0.03076388
      3.80000000	      0.75491527	     -2.20600604	    -86.82896554	      0.40499647	      0.91735806	      0.84165748	     -8.57523195	     -1.66964748	      1.31938760	    -37.21917188	      1.10331246	     -4.78554845	     23.21587350	     -0.38887862	      0.77298062	    -26.78830180	      0.61279409	      3.21447587	     -4.18266201	     -5.12014109	      0.16759108
      3.81000000	      1.04393229	     -2.22067239	    -87.35563539	      0.40757731	      0.91894656	      0.84912434	     -7.86425437	     -2.55198448	      0.27891699	    -38.86933121	     -0.64091011	     -4.89423047	     22.38360424	     -0.10065576	      0.11323384	    -26.44107901	      1.03438051	      2.95267404	     -4.15329055	     -5.41802130	      0.33081920
      3.82000000	      1.34578813	     -2.24947535	    -87.93830396	      0.41004310	      0.92041344	      0.85632866	     -7.03688053	     -3.51206112	     -0.76535746	    -40.67325888	     -2.27378472	     -5.03032474	     21.56292972	      0.19833157	     -0.64948639	    -26.10553833	      1.46316152	      2.47092318	     -4.16518174	     -5.71933234	      0.55197086
      3.83000000	      1.63877848	     -2.26906696	    -88.57026243	      0.41235451	      0.92172619	      0.86321909	     -6.06129841	     -4.48399694	     -1.67972383	    -42.62350119	     -3.91813938	     -5.16714349	     20.77882334	      0.50178744	     -1.40989911	    -25.76901283	      1.92541961	      1.89557386	     -4.19793704	     -6.00321540	      0.75344186
      3.84000000	      1.93640262	     -2.29702050	    -89.23665976	      0.41455446	      0.92290267	      0.86985020	     -4.97694137	     -5.49214892	     -2.51002753	    -44.67940404	     -5.55359895	     -5.24479688	     20.01760964	      0.82319349	     -2.17814701	    -25.44147281	      2.33280935	      1.35276924	     -4.26406795	     -6.28773520	      0.97830555
      3.85000000	      2.23886965	     -2.34938990	    -89.91755514	      0.41666733	      0.92397064	      0.87624445	     -3.82081230	     -6.52385453	     -3.25011535	    -46.80142344	     -7.18834108	     -5.23546893	     19.26865616	      1.16557045	     -2.94113892	    -25.13263435	      2.69528696	      0.83100757	     -4.37902291	     -6.57463198	      1.21731833
      3.86000000	      2.53992728	     -2.42052307	    -90.59187200	      0.41871322	      0.92492145	      0.88243551	     -2.60847120	     -7.53700613	     -3.85060701	    -48.94803788	     -8.82582474	     -5.10407205	     18.53275852	      1.53039251	     -3.66568502	    -24.83634322	      3.13358910	      0.11319012	     -4.53327104	     -6.85450028	      1.38559943
      3.87000000	      2.85959842	     -2.52943420	    -91.25234530	      0.42069412	      0.92579430	      0.88843083	     -1.37271330	     -8.55761702	     -4.35249270	    -51.09154818	    -10.42868979	     -4.84782965	     17.80382200	      1.92485830	     -4.40471656	    -24.57343036	      3.45898374	     -0.40431972	     -4.74744260	     -7.15946860	      1.53161238
      3.88000000	      3.16478142	     -2.66410489	    -91.88228123	      0.42262978	      0.92658941	      0.89423116	     -0.12066429	     -9.51924771	     -4.72725427	    -53.18818058	    -12.00447451	     -4.43888065	     17.08697366	      2.32807477	     -5.07592123	    -24.33226428	      3.80472812	     -0.97203863	     -5.00807400	     -7.44841288	      1.62332366
      3.89000000	      3.44344669	     -2.81866344	    -92.47045106	      0.42452107	      0.92731236	      0.89982958	      1.13565521	    -10.38992514	     -4.97878313	    -55.20403362	    -13.49183808	     -3.84347679	     16.39116054	      2.72903215	     -5.65348805	    -24.12049259	      4.18472070	     -1.58868698	     -5.30936103	     -7.71250350	      1.67320197
      3.90000000	      3.72071362	     -2.99109470	    -93.02344862	      0.42632893	      0.92798692	      0.90522905	      2.38894269	    -11.18197822	     -5.10110215	    -57.11776826	    -14.79257413	     -3.22751783	     15.71797137	      3.13239119	     -6.23323224	    -23.93236931	      4.47783256	     -2.06812488	     -5.64439062	     -7.98398960	      1.62584318
      3.91000000	      3.94841778	     -3.16150788	    -93.52713014	      0.42806454	      0.92858978	      0.91038913	      3.64362557	    -11.82240990	     -5.10700715	    -58.90313041	    -15.84087740	     -2.48598636	     15.09955727	      3.50162955	     -6.70238593	    -23.79797870	      4.81892987	     -2.59431042	     -5.99976569	     -8.21139173	      1.56797387
